<svg width="8" height="9" viewBox="0 0 8 9" fill="none" xmlns="http://www.w3.org/2000/svg">
<path d="M6.67689 3.67688L4.17689 6.17688C4.15367 6.20012 4.1261 6.21856 4.09575 6.23114C4.0654 6.24372 4.03287 6.2502 4.00001 6.2502C3.96716 6.2502 3.93463 6.24372 3.90428 6.23114C3.87393 6.21856 3.84636 6.20012 3.82314 6.17688L1.32314 3.67688C1.28814 3.64191 1.26429 3.59735 1.25463 3.54883C1.24497 3.50031 1.24992 3.45001 1.26886 3.4043C1.2878 3.3586 1.31987 3.31954 1.36102 3.29207C1.40217 3.2646 1.45054 3.24996 1.50001 3.25H6.50001C6.54949 3.24996 6.59786 3.2646 6.63901 3.29207C6.68016 3.31954 6.71223 3.3586 6.73117 3.4043C6.75011 3.45001 6.75506 3.50031 6.7454 3.54883C6.73573 3.59735 6.71189 3.64191 6.67689 3.67688Z" fill="#0C4A60"/>
</svg>
