<svg width="197" height="30" viewBox="0 0 197 30" fill="none" xmlns="http://www.w3.org/2000/svg">
<rect width="197" height="30" rx="5" fill="#D1D1D1"/>
<rect x="2" y="2" width="58" height="26" rx="4" fill="#FF6C2C"/>
<path d="M15.9787 20H14.348L18.0121 9.81818H19.7869L23.451 20H21.8203L18.9418 11.6676H18.8622L15.9787 20ZM16.2521 16.0128H21.5419V17.3054H16.2521V16.0128ZM24.802 20V12.3636H27.9689C28.8307 12.3636 29.5134 12.5476 30.0172 12.9155C30.521 13.2801 30.7729 13.7756 30.7729 14.402C30.7729 14.8494 30.6304 15.2041 30.3453 15.4659C30.0603 15.7277 29.6825 15.9034 29.2118 15.9929C29.5532 16.0327 29.8664 16.1354 30.1515 16.3011C30.4365 16.4635 30.6652 16.6823 30.8375 16.9574C31.0132 17.2325 31.101 17.5606 31.101 17.9418C31.101 18.3461 30.9966 18.7041 30.7878 19.0156C30.579 19.3239 30.2757 19.5658 29.878 19.7415C29.4836 19.9138 29.008 20 28.4512 20H24.802ZM26.199 18.7571H28.4512C28.8191 18.7571 29.1074 18.6693 29.3162 18.4936C29.525 18.3179 29.6294 18.0793 29.6294 17.7777C29.6294 17.4231 29.525 17.1446 29.3162 16.9425C29.1074 16.737 28.8191 16.6342 28.4512 16.6342H26.199V18.7571ZM26.199 15.5455H27.9838C28.2623 15.5455 28.5009 15.5057 28.6998 15.4261C28.9019 15.3466 29.056 15.2339 29.1621 15.0881C29.2715 14.9389 29.3262 14.7633 29.3262 14.5611C29.3262 14.2661 29.2052 14.0357 28.9632 13.87C28.7213 13.7043 28.3899 13.6214 27.9689 13.6214H26.199V15.5455ZM32.3042 13.6463V12.3636H38.7473V13.6463H36.2566V20H34.8049V13.6463H32.3042ZM43.1808 20.1541C42.4648 20.1541 41.8401 19.9901 41.3065 19.6619C40.7728 19.3338 40.3585 18.8748 40.0636 18.2848C39.7686 17.6948 39.6211 17.0054 39.6211 16.2166C39.6211 15.4245 39.7686 14.7318 40.0636 14.1385C40.3585 13.5452 40.7728 13.0845 41.3065 12.7564C41.8401 12.4283 42.4648 12.2642 43.1808 12.2642C43.8967 12.2642 44.5214 12.4283 45.055 12.7564C45.5887 13.0845 46.003 13.5452 46.2979 14.1385C46.5929 14.7318 46.7404 15.4245 46.7404 16.2166C46.7404 17.0054 46.5929 17.6948 46.2979 18.2848C46.003 18.8748 45.5887 19.3338 45.055 19.6619C44.5214 19.9901 43.8967 20.1541 43.1808 20.1541ZM43.1857 18.9062C43.6497 18.9062 44.0342 18.7836 44.3391 18.5384C44.6441 18.2931 44.8694 17.9666 45.0153 17.5589C45.1644 17.1513 45.239 16.7022 45.239 16.2116C45.239 15.7244 45.1644 15.277 45.0153 14.8693C44.8694 14.4583 44.6441 14.1286 44.3391 13.88C44.0342 13.6314 43.6497 13.5071 43.1857 13.5071C42.7184 13.5071 42.3306 13.6314 42.0224 13.88C41.7174 14.1286 41.4904 14.4583 41.3413 14.8693C41.1954 15.277 41.1225 15.7244 41.1225 16.2116C41.1225 16.7022 41.1954 17.1513 41.3413 17.5589C41.4904 17.9666 41.7174 18.2931 42.0224 18.5384C42.3306 18.7836 42.7184 18.9062 43.1857 18.9062Z" fill="white"/>
<path d="M77.233 20V9.81818H78.4659V14.3523H83.8949V9.81818H85.1278V20H83.8949V15.446H78.4659V20H77.233ZM90.6388 20.1591C89.9031 20.1591 89.2683 19.9967 88.7347 19.6719C88.2044 19.3438 87.7951 18.8864 87.5067 18.2997C87.2217 17.7098 87.0792 17.0237 87.0792 16.2415C87.0792 15.4593 87.2217 14.7699 87.5067 14.1733C87.7951 13.5734 88.1961 13.1061 88.7099 12.7713C89.2269 12.4332 89.8301 12.2642 90.5195 12.2642C90.9173 12.2642 91.31 12.3305 91.6978 12.4631C92.0856 12.5956 92.4386 12.8111 92.7567 13.1094C93.0749 13.4044 93.3285 13.7955 93.5174 14.2827C93.7063 14.7699 93.8008 15.3698 93.8008 16.0824V16.5795H87.9144V15.5653H92.6076C92.6076 15.1345 92.5214 14.75 92.3491 14.4119C92.18 14.0739 91.9381 13.8071 91.6232 13.6115C91.3117 13.416 90.9438 13.3182 90.5195 13.3182C90.0522 13.3182 89.6478 13.4342 89.3065 13.6662C88.9684 13.8949 88.7082 14.1932 88.5259 14.5611C88.3436 14.929 88.2525 15.3234 88.2525 15.7443V16.4205C88.2525 16.9972 88.3519 17.486 88.5508 17.8871C88.753 18.2848 89.033 18.5881 89.391 18.7969C89.7489 19.0024 90.1649 19.1051 90.6388 19.1051C90.9471 19.1051 91.2255 19.062 91.4741 18.9759C91.726 18.8864 91.9431 18.7538 92.1254 18.5781C92.3076 18.3991 92.4485 18.1771 92.5479 17.9119L93.6815 18.2301C93.5621 18.6146 93.3616 18.9527 93.0799 19.2443C92.7982 19.5327 92.4502 19.758 92.0359 19.9205C91.6216 20.0795 91.1559 20.1591 90.6388 20.1591ZM94.7702 22.1875V18.9062H95.4066C95.5624 18.7438 95.6966 18.5682 95.8093 18.3793C95.922 18.1903 96.0198 17.9666 96.1026 17.7081C96.1888 17.4463 96.2617 17.1281 96.3214 16.7536C96.381 16.3757 96.4341 15.92 96.4805 15.3864L96.739 12.3636H101.591V18.9062H102.765V22.1875H101.591V20H95.9435V22.1875H94.7702ZM96.739 18.9062H100.418V13.4574H97.8327L97.6339 15.3864C97.551 16.1851 97.4483 16.8828 97.3256 17.4794C97.203 18.076 97.0075 18.5516 96.739 18.9062ZM104.322 20V12.3636H107.444C108.266 12.3636 108.919 12.5492 109.403 12.9205C109.887 13.2917 110.129 13.7822 110.129 14.392C110.129 14.8561 109.991 15.2157 109.716 15.4709C109.441 15.7228 109.088 15.8935 108.657 15.983C108.939 16.0227 109.212 16.1222 109.477 16.2812C109.746 16.4403 109.968 16.6591 110.144 16.9375C110.319 17.2126 110.407 17.5507 110.407 17.9517C110.407 18.3428 110.308 18.6925 110.109 19.0007C109.91 19.3089 109.625 19.5526 109.254 19.7315C108.883 19.9105 108.438 20 107.921 20H104.322ZM105.436 18.9261H107.921C108.326 18.9261 108.642 18.83 108.871 18.6378C109.1 18.4455 109.214 18.1837 109.214 17.8523C109.214 17.4579 109.1 17.148 108.871 16.9226C108.642 16.6939 108.326 16.5795 107.921 16.5795H105.436V18.9261ZM105.436 15.5653H107.444C107.759 15.5653 108.029 15.5223 108.254 15.4361C108.48 15.3466 108.652 15.2206 108.771 15.0582C108.894 14.8925 108.955 14.697 108.955 14.4716C108.955 14.1501 108.821 13.8982 108.553 13.7159C108.284 13.5303 107.915 13.4375 107.444 13.4375H105.436V15.5653ZM113.357 18.2699L117.036 12.3636H118.388V20H117.214V14.0938L113.555 20H112.183V12.3636H113.357V18.2699ZM120.059 20L123.162 16.1222L120.099 12.3636H121.491L124.037 15.625H124.673V12.3636H125.846V15.625H126.463L129.008 12.3636H130.4L127.358 16.1222L130.44 20H129.028L126.443 16.7188H125.846V20H124.673V16.7188H124.077L121.471 20H120.059ZM133.29 18.2699L136.969 12.3636H138.321V20H137.148V14.0938L133.489 20H132.117V12.3636H133.29V18.2699ZM144.646 18.4091L147.311 12.3636H148.425L145.124 20H144.169L140.928 12.3636H142.021L144.646 18.4091ZM141.644 12.3636V20H140.47V12.3636H141.644ZM147.649 20V12.3636H148.823V20H147.649ZM154.073 20.1591C153.383 20.1591 152.778 19.995 152.258 19.6669C151.741 19.3388 151.337 18.8797 151.045 18.2898C150.757 17.6998 150.612 17.0104 150.612 16.2216C150.612 15.4261 150.757 14.7318 151.045 14.1385C151.337 13.5452 151.741 13.0845 152.258 12.7564C152.778 12.4283 153.383 12.2642 154.073 12.2642C154.762 12.2642 155.365 12.4283 155.882 12.7564C156.403 13.0845 156.807 13.5452 157.095 14.1385C157.387 14.7318 157.533 15.4261 157.533 16.2216C157.533 17.0104 157.387 17.6998 157.095 18.2898C156.807 18.8797 156.403 19.3388 155.882 19.6669C155.365 19.995 154.762 20.1591 154.073 20.1591ZM154.073 19.1051C154.596 19.1051 155.027 18.9709 155.365 18.7024C155.703 18.4339 155.954 18.081 156.116 17.6435C156.278 17.206 156.36 16.732 156.36 16.2216C156.36 15.7112 156.278 15.2356 156.116 14.7947C155.954 14.3539 155.703 13.9976 155.365 13.7259C155.027 13.4541 154.596 13.3182 154.073 13.3182C153.549 13.3182 153.118 13.4541 152.78 13.7259C152.442 13.9976 152.192 14.3539 152.029 14.7947C151.867 15.2356 151.786 15.7112 151.786 16.2216C151.786 16.732 151.867 17.206 152.029 17.6435C152.192 18.081 152.442 18.4339 152.78 18.7024C153.118 18.9709 153.549 19.1051 154.073 19.1051ZM162.426 20.1591C161.71 20.1591 161.094 19.9901 160.577 19.652C160.06 19.3139 159.662 18.8482 159.384 18.255C159.105 17.6617 158.966 16.9839 158.966 16.2216C158.966 15.446 159.108 14.7616 159.393 14.1683C159.682 13.5717 160.083 13.1061 160.597 12.7713C161.114 12.4332 161.717 12.2642 162.406 12.2642C162.943 12.2642 163.427 12.3636 163.858 12.5625C164.289 12.7614 164.642 13.0398 164.917 13.3977C165.192 13.7557 165.363 14.1733 165.429 14.6506H164.256C164.166 14.3026 163.967 13.9943 163.659 13.7259C163.354 13.4541 162.943 13.3182 162.426 13.3182C161.969 13.3182 161.568 13.4375 161.223 13.6761C160.882 13.9115 160.615 14.2446 160.423 14.6754C160.234 15.103 160.139 15.6051 160.139 16.1818C160.139 16.7718 160.232 17.2855 160.418 17.723C160.607 18.1605 160.872 18.5002 161.213 18.7422C161.558 18.9841 161.962 19.1051 162.426 19.1051C162.731 19.1051 163.008 19.0521 163.256 18.946C163.505 18.84 163.715 18.6875 163.888 18.4886C164.06 18.2898 164.183 18.0511 164.256 17.7727H165.429C165.363 18.2235 165.199 18.6295 164.937 18.9908C164.678 19.3487 164.335 19.6338 163.908 19.8459C163.483 20.0547 162.99 20.1591 162.426 20.1591ZM166.543 13.4574V12.3636H172.747V13.4574H170.241V20H169.068V13.4574H166.543ZM175.473 15.1278H177.66C178.555 15.1278 179.24 15.3549 179.714 15.8089C180.188 16.263 180.425 16.8381 180.425 17.5341C180.425 17.9915 180.318 18.4074 180.106 18.782C179.894 19.1532 179.583 19.4498 179.172 19.6719C178.761 19.8906 178.257 20 177.66 20H174.459V12.3636H175.632V18.9062H177.66C178.124 18.9062 178.506 18.7836 178.804 18.5384C179.102 18.2931 179.251 17.9782 179.251 17.5938C179.251 17.1894 179.102 16.8596 178.804 16.6044C178.506 16.3492 178.124 16.2216 177.66 16.2216H175.473V15.1278Z" fill="black"/>
</svg>
