<svg width="301" height="40" viewBox="0 0 301 40" fill="none" xmlns="http://www.w3.org/2000/svg">
<rect width="301" height="40" rx="4" fill="white"/>
<path d="M25.0781 15.3182V25.5H23.5469V16.6307H18.7543V25.5H17.223V15.3182H25.0781ZM30.5245 25.6541C29.8086 25.6541 29.1838 25.4901 28.6502 25.1619C28.1166 24.8338 27.7023 24.3748 27.4073 23.7848C27.1123 23.1948 26.9648 22.5054 26.9648 21.7166C26.9648 20.9245 27.1123 20.2318 27.4073 19.6385C27.7023 19.0452 28.1166 18.5845 28.6502 18.2564C29.1838 17.9283 29.8086 17.7642 30.5245 17.7642C31.2404 17.7642 31.8652 17.9283 32.3988 18.2564C32.9324 18.5845 33.3467 19.0452 33.6417 19.6385C33.9367 20.2318 34.0842 20.9245 34.0842 21.7166C34.0842 22.5054 33.9367 23.1948 33.6417 23.7848C33.3467 24.3748 32.9324 24.8338 32.3988 25.1619C31.8652 25.4901 31.2404 25.6541 30.5245 25.6541ZM30.5295 24.4062C30.9935 24.4062 31.378 24.2836 31.6829 24.0384C31.9878 23.7931 32.2132 23.4666 32.359 23.0589C32.5082 22.6513 32.5827 22.2022 32.5827 21.7116C32.5827 21.2244 32.5082 20.777 32.359 20.3693C32.2132 19.9583 31.9878 19.6286 31.6829 19.38C31.378 19.1314 30.9935 19.0071 30.5295 19.0071C30.0621 19.0071 29.6744 19.1314 29.3661 19.38C29.0612 19.6286 28.8342 19.9583 28.685 20.3693C28.5392 20.777 28.4663 21.2244 28.4663 21.7116C28.4663 22.2022 28.5392 22.6513 28.685 23.0589C28.8342 23.4666 29.0612 23.7931 29.3661 24.0384C29.6744 24.2836 30.0621 24.4062 30.5295 24.4062ZM37.2001 23.4169L40.5659 17.8636H42.1667V25.5H40.71V19.9418L37.3592 25.5H35.7434V17.8636H37.2001V23.4169ZM47.3819 25.6541C46.6428 25.6541 46.0065 25.4867 45.4728 25.152C44.9425 24.8139 44.5349 24.3482 44.2498 23.755C43.9648 23.1617 43.8223 22.4822 43.8223 21.7166C43.8223 20.9411 43.9681 20.2566 44.2598 19.6634C44.5514 19.0668 44.9624 18.6011 45.4927 18.2663C46.023 17.9316 46.6478 17.7642 47.367 17.7642C47.947 17.7642 48.4641 17.8719 48.9181 18.0874C49.3722 18.2995 49.7385 18.5978 50.0169 18.9822C50.2986 19.3667 50.466 19.8158 50.519 20.3295H49.0723C48.9927 19.9716 48.8104 19.6634 48.5254 19.4048C48.2437 19.1463 47.8658 19.017 47.3919 19.017C46.9776 19.017 46.6146 19.1264 46.3031 19.3452C45.9949 19.5606 45.7546 19.8688 45.5822 20.2699C45.4099 20.6676 45.3237 21.1383 45.3237 21.6818C45.3237 22.2386 45.4082 22.7192 45.5772 23.1236C45.7463 23.5279 45.9849 23.8411 46.2931 24.0632C46.6047 24.2853 46.9709 24.3963 47.3919 24.3963C47.6736 24.3963 47.9288 24.3449 48.1575 24.2422C48.3895 24.1361 48.5834 23.9853 48.7392 23.7898C48.8983 23.5942 49.0093 23.3589 49.0723 23.0838H50.519C50.466 23.5777 50.3052 24.0185 50.0368 24.4062C49.7683 24.794 49.4087 25.099 48.9579 25.321C48.5105 25.5431 47.9851 25.6541 47.3819 25.6541ZM52.1087 25.5V17.8636H53.5952V21.0653H54.3111L56.8317 17.8636H58.6712L55.7131 21.5774L58.706 25.5H56.8615L54.5597 22.4474H53.5952V25.5H52.1087Z" fill="#59595E"/>
<path d="M282.531 28.4694L277.837 23.7762C279.197 22.1428 279.876 20.0478 279.731 17.9269C279.586 15.8061 278.629 13.8227 277.059 12.3893C275.489 10.956 273.427 10.1831 271.302 10.2314C269.177 10.2797 267.152 11.1455 265.649 12.6487C264.146 14.1518 263.28 16.1767 263.232 18.3019C263.183 20.4272 263.956 22.4892 265.39 24.0591C266.823 25.629 268.806 26.5859 270.927 26.7307C273.048 26.8755 275.143 26.1971 276.776 24.8366L281.47 29.5306C281.539 29.6003 281.622 29.6556 281.713 29.6933C281.804 29.731 281.902 29.7504 282 29.7504C282.099 29.7504 282.196 29.731 282.287 29.6933C282.378 29.6556 282.461 29.6003 282.531 29.5306C282.601 29.4609 282.656 29.3782 282.694 29.2872C282.731 29.1961 282.751 29.0985 282.751 29C282.751 28.9015 282.731 28.8039 282.694 28.7128C282.656 28.6218 282.601 28.5391 282.531 28.4694ZM264.75 18.5C264.75 17.165 265.146 15.8599 265.888 14.7499C266.629 13.6399 267.684 12.7747 268.917 12.2638C270.151 11.7529 271.508 11.6192 272.817 11.8797C274.126 12.1401 275.329 12.783 276.273 13.727C277.217 14.671 277.86 15.8738 278.121 17.1831C278.381 18.4925 278.247 19.8497 277.736 21.0831C277.226 22.3165 276.36 23.3707 275.25 24.1124C274.14 24.8541 272.835 25.25 271.5 25.25C269.711 25.248 267.995 24.5362 266.729 23.2708C265.464 22.0053 264.752 20.2896 264.75 18.5Z" fill="black"/>
</svg>
