<svg width="32" height="32" viewBox="0 0 32 32" fill="none" xmlns="http://www.w3.org/2000/svg">
<circle cx="16" cy="16" r="15.5" fill="white" stroke="#CFCFCF"/>
<path d="M19.773 16.3979L14.148 22.0229C14.0957 22.0752 14.0337 22.1166 13.9654 22.1449C13.8971 22.1732 13.8239 22.1878 13.75 22.1878C13.6761 22.1878 13.6029 22.1732 13.5346 22.1449C13.4663 22.1166 13.4043 22.0752 13.352 22.0229C13.2998 21.9707 13.2583 21.9086 13.23 21.8403C13.2018 21.772 13.1872 21.6989 13.1872 21.6249C13.1872 21.551 13.2018 21.4779 13.23 21.4096C13.2583 21.3413 13.2998 21.2792 13.352 21.227L18.5798 15.9999L13.352 10.7729C13.2465 10.6674 13.1872 10.5242 13.1872 10.3749C13.1872 10.2257 13.2465 10.0825 13.352 9.97698C13.4576 9.87143 13.6007 9.81213 13.75 9.81213C13.8993 9.81213 14.0424 9.87143 14.148 9.97698L19.773 15.602C19.8253 15.6542 19.8668 15.7163 19.8951 15.7845C19.9234 15.8528 19.938 15.926 19.938 15.9999C19.938 16.0739 19.9234 16.1471 19.8951 16.2154C19.8668 16.2836 19.8253 16.3457 19.773 16.3979Z" fill="#59595E"/>
</svg>
