<svg width="24" height="24" viewBox="0 0 24 24" fill="none" xmlns="http://www.w3.org/2000/svg">
<path d="M19.5 3.1875H4.5C4.1519 3.1875 3.81806 3.32578 3.57192 3.57192C3.32578 3.81806 3.1875 4.1519 3.1875 4.5V19.5C3.1875 19.8481 3.32578 20.1819 3.57192 20.4281C3.81806 20.6742 4.1519 20.8125 4.5 20.8125H19.5C19.8481 20.8125 20.1819 20.6742 20.4281 20.4281C20.6742 20.1819 20.8125 19.8481 20.8125 19.5V4.5C20.8125 4.1519 20.6742 3.81806 20.4281 3.57192C20.1819 3.32578 19.8481 3.1875 19.5 3.1875ZM19.6875 19.5C19.6875 19.5497 19.6677 19.5974 19.6326 19.6326C19.5974 19.6677 19.5497 19.6875 19.5 19.6875H4.5C4.45027 19.6875 4.40258 19.6677 4.36742 19.6326C4.33225 19.5974 4.3125 19.5497 4.3125 19.5V4.5C4.3125 4.45027 4.33225 4.40258 4.36742 4.36742C4.40258 4.33225 4.45027 4.3125 4.5 4.3125H19.5C19.5497 4.3125 19.5974 4.33225 19.6326 4.36742C19.6677 4.40258 19.6875 4.45027 19.6875 4.5V19.5ZM16.3125 12C16.3125 12.1492 16.2532 12.2923 16.1477 12.3977C16.0423 12.5032 15.8992 12.5625 15.75 12.5625H12.5625V15.75C12.5625 15.8992 12.5032 16.0423 12.3977 16.1477C12.2923 16.2532 12.1492 16.3125 12 16.3125C11.8508 16.3125 11.7077 16.2532 11.6023 16.1477C11.4968 16.0423 11.4375 15.8992 11.4375 15.75V12.5625H8.25C8.10082 12.5625 7.95774 12.5032 7.85225 12.3977C7.74676 12.2923 7.6875 12.1492 7.6875 12C7.6875 11.8508 7.74676 11.7077 7.85225 11.6023C7.95774 11.4968 8.10082 11.4375 8.25 11.4375H11.4375V8.25C11.4375 8.10082 11.4968 7.95774 11.6023 7.85225C11.7077 7.74676 11.8508 7.6875 12 7.6875C12.1492 7.6875 12.2923 7.74676 12.3977 7.85225C12.5032 7.95774 12.5625 8.10082 12.5625 8.25V11.4375H15.75C15.8992 11.4375 16.0423 11.4968 16.1477 11.6023C16.2532 11.7077 16.3125 11.8508 16.3125 12Z" fill="white"/>
</svg>
